<svg xmlns="http://www.w3.org/2000/svg" width="1200" height="630" viewBox="0 0 1200 630">
  <rect width="1200" height="630" fill="#0b1220"/>
  <g fill="#0b1220" stroke="#22d3ee" stroke-width="2">
    <rect x="100" y="180" width="200" height="70" rx="10"/>
    <rect x="350" y="180" width="220" height="70" rx="10"/>
    <rect x="630" y="180" width="220" height="70" rx="10"/>
    <rect x="910" y="180" width="200" height="70" rx="10"/>
  </g>
  <g stroke="#38bdf8" stroke-width="4" fill="none">
    <path d="M300 215H350"/>
    <path d="M570 215H630"/>
    <path d="M850 215H910"/>
  </g>
  <g fill="#94a3b8" font-size="18" font-family="Segoe UI, Roboto, Arial" text-anchor="middle">
    <text x="200" y="222">Ingestion</text>
    <text x="460" y="222">Chunking + Embeddings</text>
    <text x="740" y="222">Hybrid Retrieval</text>
    <text x="1010" y="222">Guarded Generation</text>
  </g>

  <!-- vertical connectors aligned to centers -->
  <g stroke="#38bdf8" stroke-width="4" fill="none">
    <path d="M460 250V370"/>
    <path d="M740 250V370"/>
  </g>

  <g fill="#0b1220" stroke="#22d3ee" stroke-width="2">
    <rect x="340" y="370" width="240" height="70" rx="10"/>
    <rect x="620" y="370" width="240" height="70" rx="10"/>
  </g>
  <g fill="#94a3b8" font-size="18" font-family="Segoe UI, Roboto, Arial">
    <text x="380" y="412">Reranker + Tools</text>
    <text x="650" y="412">Streaming UI + Citations</text>
  </g>
</svg>
