<svg xmlns="http://www.w3.org/2000/svg" width="1200" height="630" viewBox="0 0 1200 630">
  <defs>
    <linearGradient id="grad" x1="0" y1="0" x2="1" y2="1">
      <stop offset="0%" stop-color="#6366f1"/>
      <stop offset="100%" stop-color="#06b6d4"/>
    </linearGradient>
  </defs>
  <rect width="1200" height="630" fill="url(#grad)"/>

  <!-- subtle grid -->
  <g stroke="rgba(255,255,255,0.08)" stroke-width="1">
    <path d="M0 90h1200M0 180h1200M0 270h1200M0 360h1200M0 450h1200M0 540h1200"/>
    <path d="M100 0v630M250 0v630M400 0v630M550 0v630M700 0v630M850 0v630M1000 0v630M1150 0v630"/>
  </g>

  <!-- nodes -->
  <g fill="#0f172a" opacity="0.25">
    <rect x="140" y="210" width="220" height="160" rx="14"/>
    <rect x="490" y="210" width="220" height="160" rx="14"/>
    <rect x="840" y="210" width="220" height="160" rx="14"/>
  </g>
  <g fill="#ffffff" opacity="0.9" font-family="Segoe UI, Roboto, Arial" text-anchor="middle">
    <text x="250" y="280" font-size="26">Hybrid Retrieval</text>
    <text x="250" y="312" font-size="18" fill="#d1d5db">BM25 + Vectors</text>
    <text x="600" y="280" font-size="26">Guardrails</text>
    <text x="600" y="312" font-size="18" fill="#d1d5db">Filters & Policies</text>
    <text x="950" y="280" font-size="26">Streaming Answers</text>
    <text x="950" y="312" font-size="18" fill="#d1d5db">Citations</text>
  </g>
  <g stroke="#a5f3fc" stroke-width="4" fill="none" opacity="0.9">
    <path d="M360 290H490"/>
    <path d="M710 290H840"/>
  </g>

  <text x="120" y="520" fill="#ffffff" font-size="42" font-family="Segoe UI, Roboto, Arial" font-weight="700">Helios Guarded RAG Platform</text>
</svg>

